<svg xmlns="http://www.w3.org/2000/svg" xmlns:xlink="http://www.w3.org/1999/xlink"><symbol id="sprite">



<symbol viewBox="0 0 25 25" id="vk">
    <path d="M13.723 15.0518C14.1656 14.9087 14.7324 15.9964 15.3358 16.4127C15.7886 16.728 16.1355 16.6599 16.1355 16.6599L17.7436 16.6368C17.7436 16.6368 18.5841 16.5849 18.1868 15.9172C18.1539 15.8616 17.9539 15.4222 16.9898 14.5179C15.9817 13.5718 16.1183 13.7251 17.332 12.0896C18.0715 11.0927 18.3674 10.4838 18.2747 10.2244C18.1858 9.97486 17.6427 10.0397 17.6427 10.0397L15.8308 10.0522C15.6543 10.0527 15.5048 10.1073 15.4367 10.2907C15.4353 10.2925 15.1492 11.0621 14.7676 11.7164C13.9614 13.1005 13.6396 13.1741 13.5062 13.0875C13.2002 12.887 13.2775 12.2832 13.2775 11.8539C13.2775 10.5125 13.4775 9.9531 12.8858 9.80863C12.688 9.76047 12.5436 9.72898 12.0393 9.72435C11.3947 9.71463 10.8474 9.72435 10.5372 9.8767C10.3311 9.97996 10.1732 10.2064 10.2691 10.2194C10.3894 10.2356 10.6594 10.2934 10.8039 10.4907C10.9896 10.7463 10.984 11.3191 10.984 11.3191C10.984 11.3191 11.09 12.8986 10.734 13.0944C10.4895 13.2287 10.1551 12.9546 9.43602 11.6979C9.06882 11.0552 8.79146 10.3448 8.79146 10.3448C8.79146 10.3448 8.73774 10.2129 8.6405 10.1406C8.52474 10.055 8.36267 10.0277 8.36267 10.0277L6.6429 10.0388C6.6429 10.0388 6.38452 10.0462 6.28959 10.1601C6.20531 10.261 6.28264 10.4694 6.28264 10.4694C6.28264 10.4694 7.62966 13.6557 9.15495 15.2606C10.5534 16.734 12.1426 16.6363 12.1426 16.6363H12.8626C12.8626 16.6363 13.0798 16.6113 13.1909 16.4918C13.2946 16.3807 13.29 16.1719 13.29 16.1719C13.29 16.1719 13.2756 15.1953 13.723 15.0518Z"/>
</symbol>


      <symbol viewBox="0 0 25 25" id="ok">

        <path d="M12.6803 6.88903C13.5788 6.88903 14.3095 7.64334 14.3095 8.57085C14.3095 9.49557 13.5788 10.2499 12.6803 10.2499C11.7818 10.2499 11.0511 9.49557 11.0511 8.57085C11.0511 7.64334 11.7818 6.88903 12.6803 6.88903ZM12.6803 12.6301C14.8507 12.6301 16.6152 10.8086 16.6152 8.57085C16.6152 6.33029 14.8507 4.50879 12.6803 4.50879C10.5098 4.50879 8.748 6.33029 8.748 8.57085C8.748 10.8086 10.5098 12.6301 12.6803 12.6301ZM14.2716 15.9435C15.0726 15.7535 15.8439 15.4266 16.5557 14.9657C17.0942 14.6164 17.2566 13.8817 16.9183 13.3258C16.5773 12.767 15.8683 12.5994 15.327 12.9514C13.7168 13.9962 11.6437 13.9962 10.0308 12.9514C9.49223 12.5994 8.78047 12.767 8.44219 13.3258C8.1039 13.8817 8.26628 14.6164 8.80483 14.9657C9.51659 15.4266 10.2879 15.7535 11.089 15.9435L8.88873 18.212C8.43948 18.6757 8.43948 19.43 8.88873 19.8938C9.11606 20.1257 9.40834 20.243 9.70332 20.243C9.99831 20.243 10.2933 20.1257 10.5206 19.8938L12.6803 17.6644L14.8426 19.8938C15.2918 20.3603 16.0198 20.3603 16.4718 19.8938C16.921 19.43 16.921 18.6757 16.4718 18.212L14.2716 15.9435Z"/>
      </symbol>

      <symbol viewBox="0 0 25 25" id="reddit">

        <path d="M13.851 5.55566C13.4056 5.55566 12.9877 5.7816 12.7196 6.10741C12.4516 6.43323 12.3038 6.8304 12.1962 7.24897C12.0252 7.92201 11.9724 8.66877 11.9597 9.34181C10.7081 9.42505 9.57457 9.79606 8.63316 10.3692C8.2511 10.0481 7.79095 9.86978 7.3498 9.87454C6.84743 9.87929 6.3704 10.0957 6.01579 10.5404C5.33823 11.3895 5.41632 12.7784 6.20154 13.6036C6.15299 13.8581 6.1171 14.1197 6.1171 14.3837C6.1171 17.1805 8.9751 19.4446 12.5001 19.4446C16.0251 19.4446 18.8831 17.1781 18.8831 14.3837C18.8831 14.1197 18.8472 13.8581 18.7987 13.6036C19.5839 12.7784 19.662 11.3895 18.9844 10.5404C18.6298 10.0957 18.1528 9.87929 17.6504 9.87454C17.2093 9.86978 16.7491 10.0481 16.3671 10.3692C15.4299 9.79843 14.3027 9.42743 13.0574 9.34181C13.0742 8.72109 13.1186 8.07659 13.2431 7.59143C13.3212 7.28702 13.4141 7.06584 13.5133 6.94455C13.6125 6.82326 13.6843 6.77332 13.851 6.77332C14.212 6.77332 14.2584 6.88985 14.4758 7.17286C14.5856 7.31556 14.7122 7.49393 14.9148 7.66754C15.1175 7.84115 15.4172 7.99098 15.7423 7.99098V6.77332C15.6515 6.77332 15.6346 6.77094 15.5734 6.71624C15.5122 6.66154 15.4278 6.5355 15.3032 6.37378C15.0542 6.04796 14.5708 5.55566 13.851 5.55566ZM17.3634 5.66982C16.5233 5.66982 15.8436 6.43561 15.8436 7.38215C15.8436 8.32869 16.5233 9.09448 17.3634 9.09448C18.2034 9.09448 18.8831 8.32869 18.8831 7.38215C18.8831 6.43561 18.2034 5.66982 17.3634 5.66982ZM17.3634 6.27865C17.9037 6.27865 18.3428 6.77332 18.3428 7.38215C18.3428 7.99098 17.9037 8.48565 17.3634 8.48565C16.823 8.48565 16.3839 7.99098 16.3839 7.38215C16.3839 6.77332 16.823 6.27865 17.3634 6.27865ZM12.5001 10.2931C15.4911 10.2931 18.0219 12.1695 18.0219 14.3837C18.0219 16.6002 15.4911 18.4742 12.5001 18.4742C9.50913 18.4742 6.9783 16.6002 6.9783 14.3837C6.9783 12.1695 9.50913 10.2931 12.5001 10.2931ZM7.36669 10.8449C7.51655 10.8472 7.67275 10.8853 7.82262 10.959C7.28015 11.4228 6.84955 11.9555 6.55615 12.5572C6.35351 12.0863 6.40839 11.4989 6.65746 11.1873C6.83899 10.959 7.09017 10.8425 7.36669 10.8449ZM17.6335 10.8449C17.91 10.8425 18.1612 10.959 18.3428 11.1873C18.5918 11.4989 18.6467 12.0863 18.4441 12.5572C18.1507 11.9555 17.7201 11.4228 17.1776 10.959C17.3275 10.8853 17.4837 10.8472 17.6335 10.8449ZM10.3387 12.3669C9.79831 12.3669 9.35927 12.8616 9.35927 13.4704C9.35927 14.0793 9.79831 14.5739 10.3387 14.5739C10.879 14.5739 11.3181 14.0793 11.3181 13.4704C11.3181 12.8616 10.879 12.3669 10.3387 12.3669ZM14.6616 12.3669C14.1212 12.3669 13.6821 12.8616 13.6821 13.4704C13.6821 14.0793 14.1212 14.5739 14.6616 14.5739C15.2019 14.5739 15.641 14.0793 15.641 13.4704C15.641 12.8616 15.2019 12.3669 14.6616 12.3669ZM9.81519 16.115C10.1593 16.9165 11.2231 17.6942 12.5001 17.6942C13.7771 17.6942 14.8579 16.9165 15.2019 16.115C14.5771 16.5693 13.5914 16.8761 12.5001 16.8761C11.4088 16.8761 10.44 16.5693 9.81519 16.115Z"/>
      </symbol>

      <symbol viewBox="0 0 18 34" id="arrow">
        <path d="M17 1L0.999999 17L17 33"/>
      </symbol>

      <symbol viewBox="0 0 42 42" id="plus">
        <circle cx="21" cy="21" r="20.5" stroke="#1C3374"/>
        <path d="M21 12V21M21 30V21M21 21H30M21 21H12" stroke="#1C3374"/>
      </symbol>

      <symbol viewBox="0 0 42 42" id="minus">
        <circle cx="21" cy="21" r="20.5" fill="#1C3374" stroke="#1C3374"/>
        <path d="M30 21H21H12" stroke="white"/>
      </symbol>
</symbol></svg>