<svg viewBox="0 0 127 31" fill="none" xmlns="http://www.w3.org/2000/svg">
<g filter="url(#filter0_d_1_156)">
<path d="M9.768 22.252C8.592 22.252 7.572 22.072 6.708 21.712C5.844 21.352 5.184 20.716 4.728 19.804C4.296 18.892 4.08 17.608 4.08 15.952V14.728C4.656 14.728 5.244 14.728 5.844 14.728C6.444 14.728 7.032 14.728 7.608 14.728V16.24C7.608 17.248 7.704 18.028 7.896 18.58C8.088 19.132 8.352 19.516 8.688 19.732C9.024 19.924 9.408 20.02 9.84 20.02C10.536 20.02 11.088 19.792 11.496 19.336C11.928 18.856 12.144 17.968 12.144 16.672C12.144 15.712 12 14.992 11.712 14.512C11.424 14.032 10.968 13.648 10.344 13.36C9.744 13.048 8.964 12.7 8.004 12.316C7.212 11.956 6.528 11.536 5.952 11.056C5.376 10.576 4.944 9.964 4.656 9.22C4.368 8.476 4.224 7.552 4.224 6.448C4.224 5.104 4.392 4.012 4.728 3.172C5.088 2.308 5.688 1.684 6.528 1.3C7.368 0.891999 8.496 0.688 9.912 0.688C11.736 0.688 13.128 1.108 14.088 1.948C15.048 2.764 15.528 3.964 15.528 5.548V8.032C14.976 8.032 14.412 8.032 13.836 8.032C13.284 8.032 12.72 8.032 12.144 8.032V6.556C12.144 5.452 11.964 4.66 11.604 4.18C11.268 3.676 10.716 3.424 9.948 3.424C9.156 3.424 8.58 3.664 8.22 4.144C7.884 4.6 7.716 5.332 7.716 6.34C7.716 7.204 7.884 7.876 8.22 8.356C8.556 8.812 8.988 9.172 9.516 9.436C10.068 9.7 10.632 9.94 11.208 10.156C12.288 10.564 13.164 10.984 13.836 11.416C14.508 11.848 15 12.424 15.312 13.144C15.624 13.864 15.78 14.884 15.78 16.204C15.78 17.716 15.528 18.916 15.024 19.804C14.544 20.668 13.848 21.292 12.936 21.676C12.048 22.06 10.992 22.252 9.768 22.252ZM24.9164 22.432C24.1004 22.432 23.3444 22.372 22.6484 22.252C21.9524 22.132 21.3524 21.892 20.8484 21.532C20.3444 21.172 19.9484 20.632 19.6604 19.912C19.3724 19.192 19.2284 18.22 19.2284 16.996V0.723999H22.6844V17.896C22.6844 18.544 22.7804 19.048 22.9724 19.408C23.1884 19.744 23.4644 19.972 23.8004 20.092C24.1364 20.212 24.5084 20.272 24.9164 20.272C25.3244 20.272 25.6964 20.212 26.0324 20.092C26.3684 19.972 26.6324 19.744 26.8244 19.408C27.0404 19.048 27.1484 18.544 27.1484 17.896V0.723999H30.5684V16.96C30.5684 18.184 30.4244 19.168 30.1364 19.912C29.8724 20.632 29.4884 21.172 28.9844 21.532C28.4804 21.892 27.8804 22.132 27.1844 22.252C26.4884 22.372 25.7324 22.432 24.9164 22.432ZM34.822 22V0.723999H42.022C43.366 0.723999 44.398 1.024 45.118 1.624C45.838 2.224 46.198 3.112 46.198 4.288V8.068C46.198 8.98 46.078 9.832 45.838 10.624C45.622 11.392 45.19 12.016 44.542 12.496C43.918 12.976 43.006 13.216 41.806 13.216H38.422V22H34.822ZM38.422 11.272H40.618C41.338 11.272 41.878 10.996 42.238 10.444C42.598 9.868 42.778 8.944 42.778 7.672V5.764C42.778 4.636 42.622 3.832 42.31 3.352C41.998 2.872 41.566 2.632 41.014 2.632H38.422V11.272ZM49.6045 22V0.723999H59.1805V3.172H53.2045V9.616H58.1365V12.316H53.2045V19.624H59.1805V22H49.6045ZM62.4534 22V0.723999H69.7974C71.1414 0.723999 72.1734 1.024 72.8934 1.624C73.6374 2.224 74.0094 3.112 74.0094 4.288V7.672C74.0094 8.848 73.6854 9.808 73.0374 10.552C72.3894 11.272 71.4294 11.668 70.1574 11.74C70.9734 11.812 71.5494 12.076 71.8854 12.532C72.2454 12.988 72.5694 13.696 72.8574 14.656L74.9094 22H71.0934L69.4014 14.908C69.2334 14.308 69.0414 13.78 68.8254 13.324C68.6094 12.868 68.2614 12.64 67.7814 12.64H66.0174V22H62.4534ZM66.0174 10.228H68.3214C69.1614 10.228 69.7494 10.012 70.0854 9.58C70.4454 9.148 70.6254 8.488 70.6254 7.6V4.9C70.6254 4.108 70.4574 3.532 70.1214 3.172C69.8094 2.812 69.3174 2.632 68.6454 2.632H66.0174V10.228ZM82.6132 22.396C81.7972 22.396 81.0292 22.264 80.3092 22C79.5892 21.76 79.0012 21.268 78.5452 20.524C78.1132 19.756 77.8972 18.616 77.8972 17.104V5.224C77.8972 3.928 78.1372 2.944 78.6172 2.272C79.0972 1.576 79.7692 1.108 80.6332 0.868C81.4972 0.603999 82.4932 0.471998 83.6212 0.471998C84.7492 0.471998 85.7452 0.603999 86.6092 0.868C87.4732 1.132 88.1452 1.612 88.6252 2.308C89.1292 2.98 89.3812 3.952 89.3812 5.224V8.104H86.0332V5.08C86.0332 4.36 85.9252 3.82 85.7092 3.46C85.5172 3.1 85.2412 2.86 84.8812 2.74C84.5452 2.62 84.1372 2.56 83.6572 2.56C83.2252 2.56 82.8292 2.62 82.4692 2.74C82.1092 2.86 81.8212 3.1 81.6052 3.46C81.4132 3.82 81.3172 4.36 81.3172 5.08V17.86C81.3172 18.58 81.4132 19.12 81.6052 19.48C81.8212 19.84 82.1092 20.08 82.4692 20.2C82.8292 20.32 83.2252 20.38 83.6572 20.38C84.3532 20.38 84.9172 20.176 85.3492 19.768C85.8052 19.336 86.0332 18.7 86.0332 17.86V13.54H83.9092V11.56H89.3812V22H86.7892L86.6092 20.2C86.5612 20.296 86.5012 20.404 86.4292 20.524C86.3572 20.62 86.2972 20.704 86.2492 20.776C85.9612 21.208 85.5292 21.592 84.9532 21.928C84.4012 22.24 83.6212 22.396 82.6132 22.396ZM95.9112 22V12.856L91.9512 0.723999H95.3712L97.6032 7.996L97.7832 9.112L97.9992 7.996L100.339 0.723999H103.543L99.3672 13.036V22H95.9112ZM106.449 22V0.723999H110.697L114.261 15.844L117.861 0.723999H122.073V22H119.013V5.584L115.449 22H113.073L109.509 5.584V22H106.449Z" fill="white"/>
</g>
<defs>
<filter id="filter0_d_1_156" x="0.0800781" y="0.471985" width="125.993" height="29.96" filterUnits="userSpaceOnUse" color-interpolation-filters="sRGB">
<feFlood flood-opacity="0" result="BackgroundImageFix"/>
<feColorMatrix in="SourceAlpha" type="matrix" values="0 0 0 0 0 0 0 0 0 0 0 0 0 0 0 0 0 0 127 0" result="hardAlpha"/>
<feOffset dy="4"/>
<feGaussianBlur stdDeviation="2"/>
<feComposite in2="hardAlpha" operator="out"/>
<feColorMatrix type="matrix" values="0 0 0 0 0 0 0 0 0 0 0 0 0 0 0 0 0 0 0.25 0"/>
<feBlend mode="normal" in2="BackgroundImageFix" result="effect1_dropShadow_1_156"/>
<feBlend mode="normal" in="SourceGraphic" in2="effect1_dropShadow_1_156" result="shape"/>
</filter>
</defs>
</svg>
